<svg xmlns="http://www.w3.org/2000/svg" width="256" height="256" fill="none" viewBox="0 0 24 24" stroke="#4f46e5">
    <path stroke-linecap="round" stroke-linejoin="round" stroke-width="2" d="M12 6.253v11.494m0 0A8.489 8.489 0 0019.5 12c0-4.682-3.818-8.494-8.5-8.494A8.489 8.489 0 004.5 12a8.489 8.489 0 007.5 7.747M12 6.253c0-1.657 1.343-3 3-3s3 1.343 3 3M12 6.253c0-1.657-1.343-3-3-3s-3 1.343-3 3m6 14.5V12a3 3 0 013-3h0a3 3 0 013 3v6.747m-6 0A8.489 8.489 0 004.5 12c0-4.682 3.818-8.494 8.5-8.494A8.489 8.489 0 0119.5 12a8.489 8.489 0 01-7.5 7.747" />
</svg>